<svg xmlns="http://www.w3.org/2000/svg" viewBox="-15.0 -112.0 495.0 796.0" width="495" height="796">
<rect x="-15.0" y="-112.0" width="495.0" height="796.0" fill="#0b0d11" />
<polygon points="105.0,-52.0 135.0,-52.0 150.0,-26.0 135.0,0.0 105.0,0.0 90.0,-26.0" fill="none" stroke="#5b6470" stroke-width="1" stroke-dasharray="3 3" opacity="0.5" />
<polygon points="375.0,416.0 405.0,416.0 420.0,442.0 405.0,468.0 375.0,468.0 360.0,442.0" fill="none" stroke="#5b6470" stroke-width="1" stroke-dasharray="3 3" opacity="0.5" />
<circle cx="120.0" cy="-26.0" r="25.2" fill="rgba(158,195,228,0.5)" />
<text x="120.0" y="6.2" text-anchor="middle" font-size="7" fill="#9ec3e4" opacity="0.75">MEDIUM OLD_PATH</text>
<circle cx="390.0" cy="442.0" r="25.2" fill="rgba(158,195,228,0.28)" />
<text x="390.0" y="474.2" text-anchor="middle" font-size="7" fill="#9ec3e4" opacity="0.75">SUBTLE VEGETATION_SIGNAL</text>
<polygon points="60.0,78.0 90.0,78.0 105.0,104.0 90.0,130.0 60.0,130.0 45.0,104.0" fill="#4a4763" stroke="#1b1d22" stroke-width="1" />
<polygon points="105.0,0.0 135.0,0.0 150.0,26.0 135.0,52.0 105.0,52.0 90.0,26.0" fill="#4a4763" stroke="#1b1d22" stroke-width="1" />
<polygon points="105.0,52.0 135.0,52.0 150.0,78.0 135.0,104.0 105.0,104.0 90.0,78.0" fill="#4a4763" stroke="#1b1d22" stroke-width="1" />
<polygon points="105.0,104.0 135.0,104.0 150.0,130.0 135.0,156.0 105.0,156.0 90.0,130.0" fill="#4a4763" stroke="#1b1d22" stroke-width="1" />
<polygon points="105.0,156.0 135.0,156.0 150.0,182.0 135.0,208.0 105.0,208.0 90.0,182.0" fill="#7a6a4f" stroke="#1b1d22" stroke-width="1" />
<polygon points="105.0,208.0 135.0,208.0 150.0,234.0 135.0,260.0 105.0,260.0 90.0,234.0" fill="#7a6a4f" stroke="#1b1d22" stroke-width="1" />
<polygon points="150.0,234.0 180.0,234.0 195.0,260.0 180.0,286.0 150.0,286.0 135.0,260.0" fill="#7a6a4f" stroke="#1b1d22" stroke-width="1" />
<polygon points="150.0,286.0 180.0,286.0 195.0,312.0 180.0,338.0 150.0,338.0 135.0,312.0" fill="#7a6a4f" stroke="#1b1d22" stroke-width="1" />
<polygon points="195.0,312.0 225.0,312.0 240.0,338.0 225.0,364.0 195.0,364.0 180.0,338.0" fill="#7a6a4f" stroke="#1b1d22" stroke-width="1" />
<polygon points="240.0,546.0 270.0,546.0 285.0,572.0 270.0,598.0 240.0,598.0 225.0,572.0" fill="#5c6b74" stroke="#1b1d22" stroke-width="1" />
<polygon points="240.0,338.0 270.0,338.0 285.0,364.0 270.0,390.0 240.0,390.0 225.0,364.0" fill="#6f7d54" stroke="#1b1d22" stroke-width="1" />
<polygon points="285.0,520.0 315.0,520.0 330.0,546.0 315.0,572.0 285.0,572.0 270.0,546.0" fill="#5c6b74" stroke="#1b1d22" stroke-width="1" />
<polygon points="285.0,572.0 315.0,572.0 330.0,598.0 315.0,624.0 285.0,624.0 270.0,598.0" fill="#5c6b74" stroke="#1b1d22" stroke-width="1" />
<polygon points="285.0,364.0 315.0,364.0 330.0,390.0 315.0,416.0 285.0,416.0 270.0,390.0" fill="#6f7d54" stroke="#1b1d22" stroke-width="1" />
<polygon points="285.0,416.0 315.0,416.0 330.0,442.0 315.0,468.0 285.0,468.0 270.0,442.0" fill="#6f7d54" stroke="#1b1d22" stroke-width="1" />
<polygon points="285.0,468.0 315.0,468.0 330.0,494.0 315.0,520.0 285.0,520.0 270.0,494.0" fill="#5c6b74" stroke="#1b1d22" stroke-width="1" />
<polygon points="330.0,338.0 360.0,338.0 375.0,364.0 360.0,390.0 330.0,390.0 315.0,364.0" fill="#6f7d54" stroke="#1b1d22" stroke-width="1" />
<polygon points="330.0,390.0 360.0,390.0 375.0,416.0 360.0,442.0 330.0,442.0 315.0,416.0" fill="#6f7d54" stroke="#1b1d22" stroke-width="1" />
<polygon points="330.0,494.0 360.0,494.0 375.0,520.0 360.0,546.0 330.0,546.0 315.0,520.0" fill="#5c6b74" stroke="#1b1d22" stroke-width="1" />
<circle cx="345.0" cy="520.0" r="4" fill="none" stroke="#e0c26a" stroke-width="1.5" />
<text x="345.0" y="503.4" text-anchor="middle" font-size="6" fill="#e0c26a">SIDE_INTEREST</text>
<circle cx="120.0" cy="-26.0" r="4" fill="none" stroke="#e0c26a" stroke-width="1.5" />
<text x="120.0" y="-42.6" text-anchor="middle" font-size="6" fill="#e0c26a">LANDMARK</text>
<circle cx="345.0" cy="416.0" r="4" fill="none" stroke="#e0c26a" stroke-width="1.5" />
<text x="345.0" y="399.4" text-anchor="middle" font-size="6" fill="#e0c26a">SHORTCUT</text>
<circle cx="120.0" cy="182.0" r="4" fill="none" stroke="#e0c26a" stroke-width="1.5" />
<text x="120.0" y="165.4" text-anchor="middle" font-size="6" fill="#e0c26a">OBSTACLE</text>
<circle cx="300.0" cy="390.0" r="18.0" fill="none" stroke="#f2d675" stroke-width="3" />
<circle cx="300.0" cy="442.0" r="6" fill="#7ad17a" stroke="#0b0d11" stroke-width="1.5" />
</svg>
