<svg xmlns="http://www.w3.org/2000/svg" viewBox="-60.0 -60.0 540.0 588.0" width="540" height="588">
<rect x="-60.0" y="-60.0" width="540.0" height="588.0" fill="#0b0d11" />
<polygon points="15.0,0.0 45.0,0.0 60.0,26.0 45.0,52.0 15.0,52.0 0.0,26.0" fill="none" stroke="#5b6470" stroke-width="1" stroke-dasharray="3 3" opacity="0.5" />
<polygon points="375.0,416.0 405.0,416.0 420.0,442.0 405.0,468.0 375.0,468.0 360.0,442.0" fill="none" stroke="#5b6470" stroke-width="1" stroke-dasharray="3 3" opacity="0.5" />
<circle cx="390.0" cy="442.0" r="25.2" fill="rgba(158,195,228,0.72)" />
<text x="390.0" y="474.2" text-anchor="middle" font-size="7" fill="#9ec3e4" opacity="0.75">STRONG LANDMARK_SILHOUETTE</text>
<circle cx="30.0" cy="26.0" r="25.2" fill="rgba(158,195,228,0.28)" />
<text x="30.0" y="58.2" text-anchor="middle" font-size="7" fill="#9ec3e4" opacity="0.75">SUBTLE STREAM</text>
<polygon points="60.0,26.0 90.0,26.0 105.0,52.0 90.0,78.0 60.0,78.0 45.0,52.0" fill="#6f7d54" stroke="#1b1d22" stroke-width="1" />
<polygon points="105.0,52.0 135.0,52.0 150.0,78.0 135.0,104.0 105.0,104.0 90.0,78.0" fill="#6f7d54" stroke="#1b1d22" stroke-width="1" />
<polygon points="105.0,104.0 135.0,104.0 150.0,130.0 135.0,156.0 105.0,156.0 90.0,130.0" fill="#6f7d54" stroke="#1b1d22" stroke-width="1" />
<polygon points="105.0,156.0 135.0,156.0 150.0,182.0 135.0,208.0 105.0,208.0 90.0,182.0" fill="#7a6a4f" stroke="#1b1d22" stroke-width="1" />
<polygon points="105.0,208.0 135.0,208.0 150.0,234.0 135.0,260.0 105.0,260.0 90.0,234.0" fill="#7a6a4f" stroke="#1b1d22" stroke-width="1" />
<polygon points="150.0,26.0 180.0,26.0 195.0,52.0 180.0,78.0 150.0,78.0 135.0,52.0" fill="#6f7d54" stroke="#1b1d22" stroke-width="1" />
<polygon points="150.0,78.0 180.0,78.0 195.0,104.0 180.0,130.0 150.0,130.0 135.0,104.0" fill="#6f7d54" stroke="#1b1d22" stroke-width="1" />
<polygon points="150.0,234.0 180.0,234.0 195.0,260.0 180.0,286.0 150.0,286.0 135.0,260.0" fill="#7a6a4f" stroke="#1b1d22" stroke-width="1" />
<polygon points="150.0,286.0 180.0,286.0 195.0,312.0 180.0,338.0 150.0,338.0 135.0,312.0" fill="#7a6a4f" stroke="#1b1d22" stroke-width="1" />
<polygon points="195.0,104.0 225.0,104.0 240.0,130.0 225.0,156.0 195.0,156.0 180.0,130.0" fill="#5c6b74" stroke="#1b1d22" stroke-width="1" />
<polygon points="195.0,156.0 225.0,156.0 240.0,182.0 225.0,208.0 195.0,208.0 180.0,182.0" fill="#5c6b74" stroke="#1b1d22" stroke-width="1" />
<polygon points="195.0,312.0 225.0,312.0 240.0,338.0 225.0,364.0 195.0,364.0 180.0,338.0" fill="#7a6a4f" stroke="#1b1d22" stroke-width="1" />
<polygon points="240.0,130.0 270.0,130.0 285.0,156.0 270.0,182.0 240.0,182.0 225.0,156.0" fill="#5c6b74" stroke="#1b1d22" stroke-width="1" />
<polygon points="240.0,182.0 270.0,182.0 285.0,208.0 270.0,234.0 240.0,234.0 225.0,208.0" fill="#5c6b74" stroke="#1b1d22" stroke-width="1" />
<polygon points="240.0,338.0 270.0,338.0 285.0,364.0 270.0,390.0 240.0,390.0 225.0,364.0" fill="#4a4763" stroke="#1b1d22" stroke-width="1" />
<polygon points="285.0,312.0 315.0,312.0 330.0,338.0 315.0,364.0 285.0,364.0 270.0,338.0" fill="#4a4763" stroke="#1b1d22" stroke-width="1" />
<polygon points="285.0,364.0 315.0,364.0 330.0,390.0 315.0,416.0 285.0,416.0 270.0,390.0" fill="#4a4763" stroke="#1b1d22" stroke-width="1" />
<polygon points="330.0,390.0 360.0,390.0 375.0,416.0 360.0,442.0 330.0,442.0 315.0,416.0" fill="#4a4763" stroke="#1b1d22" stroke-width="1" />
<circle cx="255.0" cy="156.0" r="4" fill="none" stroke="#e0c26a" stroke-width="1.5" />
<text x="255.0" y="139.4" text-anchor="middle" font-size="6" fill="#e0c26a">SIDE_INTEREST</text>
<circle cx="390.0" cy="442.0" r="4" fill="none" stroke="#e0c26a" stroke-width="1.5" />
<text x="390.0" y="425.4" text-anchor="middle" font-size="6" fill="#e0c26a">LANDMARK</text>
<circle cx="345.0" cy="416.0" r="4" fill="none" stroke="#e0c26a" stroke-width="1.5" />
<text x="345.0" y="399.4" text-anchor="middle" font-size="6" fill="#e0c26a">SHORTCUT</text>
<circle cx="120.0" cy="182.0" r="4" fill="none" stroke="#e0c26a" stroke-width="1.5" />
<text x="120.0" y="165.4" text-anchor="middle" font-size="6" fill="#e0c26a">OBSTACLE</text>
<circle cx="120.0" cy="78.0" r="18.0" fill="none" stroke="#f2d675" stroke-width="3" />
<circle cx="120.0" cy="130.0" r="6" fill="#7ad17a" stroke="#0b0d11" stroke-width="1.5" />
</svg>
